# Exported from Figuro at https://www.figuro.io

mtllib newscene.mtl
o cube10
v -548.5069577225343 -84.25397563882649 -241.55819936157522
v 526.861321328279 -84.25397563882649 -241.55819936157522
v 526.861321328279 171.74602436117357 -241.55819936157522
v -548.5069577225343 171.74602436117357 -241.55819936157522
v 526.861321328279 -84.25397563882649 -43.361307469124554
v 526.861321328279 171.74602436117357 -43.361307469124554
v -548.5069577225343 -84.25397563882649 -43.361307469124554
v -548.5069577225343 171.74602436117357 -43.361307469124554
# 8 vertices
vt 2.1426053036036494 0.670882907660834
vt -2.05805203643859 0.670882907660834
vt -2.05805203643859 1.6708829076608342
vt 2.1426053036036494 1.6708829076608342
vt 0.9435867162561532 0.670882907660834
vt 0.1693801073012678 0.670882907660834
vt 0.1693801073012678 1.6708829076608342
vt 0.9435867162561532 1.6708829076608342
vt 2.05805203643859 0.670882907660834
vt -2.1426053036036494 0.670882907660834
vt -2.1426053036036494 1.6708829076608342
vt 2.05805203643859 1.6708829076608342
vt -0.1693801073012678 0.670882907660834
vt -0.9435867162561532 0.670882907660834
vt -0.9435867162561532 1.6708829076608342
vt -0.1693801073012678 1.6708829076608342
vt -2.1426053036036494 0.8306198926987323
vt 2.05805203643859 0.8306198926987323
vt 2.05805203643859 0.0564132837438468
vt -2.1426053036036494 0.0564132837438468
vt -2.1426053036036494 1.9435867162561533
vt 2.05805203643859 1.9435867162561533
vt 2.05805203643859 1.1693801073012677
vt -2.1426053036036494 1.1693801073012677
# 24 uvs
vn -0.3333333333333333 -0.3333333333333333 -0.3333333333333333
vn 0.3333333333333333 -0.3333333333333333 -0.3333333333333333
vn 0.3333333333333333 0.3333333333333333 -0.3333333333333333
vn -0.3333333333333333 0.3333333333333333 -0.3333333333333333
vn 0.3333333333333333 -0.3333333333333333 0.3333333333333333
vn 0.3333333333333333 0.3333333333333333 0.3333333333333333
vn -0.3333333333333333 -0.3333333333333333 0.3333333333333333
vn -0.3333333333333333 0.3333333333333333 0.3333333333333333
# 8 normals
usemtl 1a1a1a
f 4/4/4 3/3/3 2/2/2 1/1/1 
f 3/8/3 6/7/6 5/6/5 2/5/2 
f 6/12/6 8/11/8 7/10/7 5/9/5 
f 8/16/8 4/15/4 1/14/1 7/13/7 
f 1/20/1 2/19/2 5/18/5 7/17/7 
f 8/24/8 6/23/6 3/22/3 4/21/4 
# 6 polygons